<svg id="kity_svg_6" xmlns="http://www.w3.org/2000/svg" xmlns:xlink="http://www.w3.org/1999/xlink" version="1.1" width="1272" height="776" style="background: rgb(251, 251, 251) none repeat scroll 0% 0%; visibility: visible;" viewBox="0 0 1272 776"><defs id="kity_defs_7"><linearGradient id="kity_linearGradient_17" x1="0" y1="0" x2="0" y2="1"><stop id="kity_stop_18" offset="0" stop-color="rgb(255, 255, 255)"></stop><stop id="kity_stop_19" offset="1" stop-color="rgb(204, 204, 204)"></stop></linearGradient><marker id="kity_marker_2" orient="auto" refX="6" refY="0" viewBox="-7 -7 14 14" markerWidth="7" markerHeight="7" markerUnits="userSpaceOnUse"><path id="kity_path_3" fill="rgb(115, 161, 191)" stroke="none" d="M6,0A6,6,0,1,1,-6,0A6,6,0,1,1,6,0"></path></marker></defs><g id="kity_g_8"><g id="minder1" text-rendering="optimize-speed"><g id="minder_connect_group1"><path id="kity_path_31" fill="none" stroke="rgb(115, 161, 191)" stroke-width="1" d="M108,520.5A205.5,223,0,0,1,313.5,297.5"></path><path id="kity_path_39" fill="none" stroke="rgb(115, 161, 191)" stroke-width="1" d="M108,520.5A205.5,54,0,0,0,313.5,574.5"></path><path id="kity_path_47" fill="none" stroke="rgb(115, 161, 191)" stroke-width="1" d="M108,520.5A205.5,157,0,0,0,313.5,677.5"></path><path id="kity_path_55" fill="none" stroke="rgb(115, 161, 191)" stroke-width="1" d="M108,520.5A205.5,223,0,0,0,313.5,743.5"></path><path id="kity_path_63" fill="none" stroke="rgb(115, 161, 191)" stroke-width="1" d="M454.5,297.5C474.5,297.5,474.5,148.5,494.5,148.5"></path><path id="kity_path_71" fill="none" stroke="rgb(115, 161, 191)" stroke-width="1" d="M454.5,297.5C474.5,297.5,474.5,395.5,494.5,395.5"></path><path id="kity_path_79" fill="none" stroke="rgb(115, 161, 191)" stroke-width="1" d="M454.5,297.5C474.5,297.5,474.5,447.5,494.5,447.5"></path><path id="kity_path_87" fill="none" stroke="rgb(115, 161, 191)" stroke-width="1" d="M811.5,148.5C831.5,148.5,831.5,31.5,851.5,31.5"></path><path id="kity_path_95" fill="none" stroke="rgb(115, 161, 191)" stroke-width="1" d="M811.5,148.5C831.5,148.5,831.5,83.5,851.5,83.5"></path><path id="kity_path_103" fill="none" stroke="rgb(115, 161, 191)" stroke-width="1" d="M811.5,148.5C831.5,148.5,831.5,135.5,851.5,135.5"></path><path id="kity_path_111" fill="none" stroke="rgb(115, 161, 191)" stroke-width="1" d="M950.5,135.5C970.5,135.5,970.5,135.5,990.5,135.5"></path><path id="kity_path_119" fill="none" stroke="rgb(115, 161, 191)" stroke-width="1" d="M1029.5,31.5C1049.5,31.5,1049.5,31.5,1069.5,31.5"></path><path id="kity_path_127" fill="none" stroke="rgb(115, 161, 191)" stroke-width="1" d="M811.5,148.5C831.5,148.5,831.5,265.5,851.5,265.5"></path><path id="kity_path_135" fill="none" stroke="rgb(115, 161, 191)" stroke-width="1" d="M952.5,265.5C972.5,265.5,972.5,213.5,992.5,213.5"></path><path id="kity_path_143" fill="none" stroke="rgb(115, 161, 191)" stroke-width="1" d="M952.5,265.5C972.5,265.5,972.5,317.5,992.5,317.5"></path><path id="kity_path_151" fill="none" stroke="rgb(115, 161, 191)" stroke-width="1" d="M1121.5,213.5C1141.5,213.5,1141.5,187.5,1161.5,187.5"></path><path id="kity_path_159" fill="none" stroke="rgb(115, 161, 191)" stroke-width="1" d="M1121.5,213.5C1141.5,213.5,1141.5,239.5,1161.5,239.5"></path><path id="kity_path_167" fill="none" stroke="rgb(115, 161, 191)" stroke-width="1" d="M1097.5,317.5C1117.5,317.5,1117.5,291.5,1137.5,291.5"></path><path id="kity_path_175" fill="none" stroke="rgb(115, 161, 191)" stroke-width="1" d="M1097.5,317.5C1117.5,317.5,1117.5,343.5,1137.5,343.5"></path><path id="kity_path_183" fill="none" stroke="rgb(115, 161, 191)" stroke-width="1" d="M442.5,574.5C462.5,574.5,462.5,535.5,482.5,535.5"></path><path id="kity_path_191" fill="none" stroke="rgb(115, 161, 191)" stroke-width="1" d="M442.5,574.5C462.5,574.5,462.5,613.5,482.5,613.5"></path><path id="kity_path_199" fill="none" stroke="rgb(115, 161, 191)" stroke-width="1" d="M596.5,535.5C616.5,535.5,616.5,509.5,636.5,509.5"></path><path id="kity_path_207" fill="none" stroke="rgb(115, 161, 191)" stroke-width="1" d="M596.5,535.5C616.5,535.5,616.5,561.5,636.5,561.5"></path><path id="kity_path_215" fill="none" stroke="rgb(115, 161, 191)" stroke-width="1" d="M483.5,677.5C503.5,677.5,503.5,677.5,523.5,677.5"></path><path id="kity_path_223" fill="none" stroke="rgb(115, 161, 191)" stroke-width="1" d="M661.5,677.5C681.5,677.5,681.5,677.5,701.5,677.5"></path><path id="kity_path_231" fill="none" stroke="rgb(115, 161, 191)" stroke-width="1" d="M474.5,743.5C494.5,743.5,494.5,743.5,514.5,743.5"></path><path id="kity_path_239" fill="none" stroke="rgb(115, 161, 191)" stroke-width="1" d="M642.5,743.5C662.5,743.5,662.5,743.5,682.5,743.5"></path></g><g id="minder_node1"><path id="node_outline1" fill="rgb(115, 161, 191)" stroke="rgb(115, 161, 191)" d="M25.5,500.5h165a5,5,0,0,1,5,5v30a5,5,0,0,1,-5,5h-165a5,5,0,0,1,-5,-5v-30a5,5,0,0,1,5,-5z" stroke-width="3"></path><g id="node_text1" fill="white"><text id="kity_text_22" text-rendering="inherit" font-size="16" dy=".8em" y="509.939998626709" x="44.5">Numberic Literal</text></g></g><g id="kity_g_12"><path id="kity_path_13" fill="none" stroke="none" d="M44.5,520.5h0v0h0z"></path></g><g id="kity_g_14"><path id="kity_path_15" fill="none" stroke="none" d="M44.5,520.5h0v0h0z"></path><path id="kity_path_16" fill="none" stroke="none"></path></g><g id="minder_node2"><g id="node_expander1" style="cursor: pointer;"><path id="kity_path_36" fill="white" stroke="gray" d="M314.5,297.5A6,6,0,1,1,302.5,297.5A6,6,0,1,1,314.5,297.5"></path><path id="kity_path_37" fill="none" stroke="gray" d="M304,297.5L313,297.5"></path></g><path id="node_outline2" fill="rgb(238, 243, 246)" stroke="rgb(115, 161, 191)" d="M318.5,284.5h133a3,3,0,0,1,3,3v20a3,3,0,0,1,-3,3h-133a3,3,0,0,1,-3,-3v-20a3,3,0,0,1,3,-3z" stroke-width="1"></path><g id="node_text2" fill="black"><text id="kity_text_33" text-rendering="inherit" font-size="14" dy=".8em" y="288.2599983215332" x="335.5">Decimal Literal</text></g></g><g id="minder_node3"><g id="node_expander2" style="cursor: pointer;"><path id="kity_path_44" fill="white" stroke="gray" d="M314.5,574.5A6,6,0,1,1,302.5,574.5A6,6,0,1,1,314.5,574.5"></path><path id="kity_path_45" fill="none" stroke="gray" d="M304,574.5L313,574.5"></path></g><path id="node_outline3" fill="rgb(238, 243, 246)" stroke="rgb(115, 161, 191)" d="M318.5,561.5h121a3,3,0,0,1,3,3v20a3,3,0,0,1,-3,3h-121a3,3,0,0,1,-3,-3v-20a3,3,0,0,1,3,-3z" stroke-width="1"></path><g id="node_text3" fill="black"><text id="kity_text_41" text-rendering="inherit" font-size="14" dy=".8em" y="565.2599983215332" x="335.5">Binary Literal</text></g></g><g id="minder_node4"><g id="node_expander3" style="cursor: pointer;"><path id="kity_path_52" fill="white" stroke="gray" d="M314.5,677.5A6,6,0,1,1,302.5,677.5A6,6,0,1,1,314.5,677.5"></path><path id="kity_path_53" fill="none" stroke="gray" d="M304,677.5L313,677.5"></path></g><path id="node_outline4" fill="rgb(238, 243, 246)" stroke="rgb(115, 161, 191)" d="M318.5,664.5h162a3,3,0,0,1,3,3v20a3,3,0,0,1,-3,3h-162a3,3,0,0,1,-3,-3v-20a3,3,0,0,1,3,-3z" stroke-width="1"></path><g id="node_text4" fill="black"><text id="kity_text_49" text-rendering="inherit" font-size="14" dy=".8em" y="668.2599983215332" x="335.5">OctalInteger Literal</text></g></g><g id="minder_node5"><g id="node_expander4" style="cursor: pointer;"><path id="kity_path_60" fill="white" stroke="gray" d="M314.5,743.5A6,6,0,1,1,302.5,743.5A6,6,0,1,1,314.5,743.5"></path><path id="kity_path_61" fill="none" stroke="gray" d="M304,743.5L313,743.5"></path></g><path id="node_outline5" fill="rgb(238, 243, 246)" stroke="rgb(115, 161, 191)" d="M318.5,730.5h153a3,3,0,0,1,3,3v20a3,3,0,0,1,-3,3h-153a3,3,0,0,1,-3,-3v-20a3,3,0,0,1,3,-3z" stroke-width="1"></path><g id="node_text5" fill="black"><text id="kity_text_57" text-rendering="inherit" font-size="14" dy=".8em" y="734.2599983215332" x="335.5">HexInteger Literal</text></g></g><g id="minder_node6"><g id="node_expander5" style="cursor: pointer;"><path id="kity_path_68" fill="white" stroke="gray" d="M494.5,148.5A6,6,0,1,1,482.5,148.5A6,6,0,1,1,494.5,148.5"></path><path id="kity_path_69" fill="none" stroke="gray" d="M484,148.5L493,148.5"></path></g><path id="node_outline6" fill="none" stroke="none" d="M499.5,137.5h307a5,5,0,0,1,5,5v12a5,5,0,0,1,-5,5h-307a5,5,0,0,1,-5,-5v-12a5,5,0,0,1,5,-5z" stroke-width="3"></path><g id="node_text6" fill="black"><text id="kity_text_65" text-rendering="inherit" font-size="12" dy=".8em" y="140.5800018310547" x="504.5">Decimal Integer Literal . DecimaDigits ExponentPart</text></g></g><g id="minder_node7"><g id="node_expander6" style="cursor: pointer;" display="none"><path id="kity_path_76" fill="white" stroke="gray" d="M494.5,395.5A6,6,0,1,1,482.5,395.5A6,6,0,1,1,494.5,395.5"></path><path id="kity_path_77" fill="none" stroke="gray"></path></g><path id="node_outline7" fill="none" stroke="none" d="M499.5,384.5h173a5,5,0,0,1,5,5v12a5,5,0,0,1,-5,5h-173a5,5,0,0,1,-5,-5v-12a5,5,0,0,1,5,-5z" stroke-width="3"></path><g id="node_text7" fill="black"><text id="kity_text_73" text-rendering="inherit" font-size="12" dy=".8em" y="387.5800018310547" x="504.5">. DecimaDigits ExponentPart</text></g></g><g id="minder_node8"><g id="node_expander7" style="cursor: pointer;" display="none"><path id="kity_path_84" fill="white" stroke="gray" d="M494.5,447.5A6,6,0,1,1,482.5,447.5A6,6,0,1,1,494.5,447.5"></path><path id="kity_path_85" fill="none" stroke="gray"></path></g><path id="node_outline8" fill="none" stroke="none" d="M499.5,436.5h220a5,5,0,0,1,5,5v12a5,5,0,0,1,-5,5h-220a5,5,0,0,1,-5,-5v-12a5,5,0,0,1,5,-5z" stroke-width="3"></path><g id="node_text8" fill="black"><text id="kity_text_81" text-rendering="inherit" font-size="12" dy=".8em" y="439.5800018310547" x="504.5">Decimal Integer Literal ExponentPart</text></g></g><g id="minder_node9"><g id="node_expander8" style="cursor: pointer;"><path id="kity_path_92" fill="white" stroke="gray" d="M851.5,31.5A6,6,0,1,1,839.5,31.5A6,6,0,1,1,851.5,31.5"></path><path id="kity_path_93" fill="none" stroke="gray" d="M841,31.5L850,31.5"></path></g><path id="node_outline9" fill="none" stroke="none" d="M856.5,20.5h168a5,5,0,0,1,5,5v12a5,5,0,0,1,-5,5h-168a5,5,0,0,1,-5,-5v-12a5,5,0,0,1,5,-5z" stroke-width="3"></path><g id="node_text9" fill="black"><text id="kity_text_89" text-rendering="inherit" font-size="12" dy=".8em" y="23.580001831054688" x="861.5">NonZeroDigit DecimalDigis</text></g></g><g id="minder_node10"><g id="node_expander9" style="cursor: pointer;" display="none"><path id="kity_path_100" fill="white" stroke="gray" d="M851.5,83.5A6,6,0,1,1,839.5,83.5A6,6,0,1,1,851.5,83.5"></path><path id="kity_path_101" fill="none" stroke="gray"></path></g><path id="node_outline10" fill="none" stroke="none" d="M856.5,72.5h17a5,5,0,0,1,5,5v12a5,5,0,0,1,-5,5h-17a5,5,0,0,1,-5,-5v-12a5,5,0,0,1,5,-5z" stroke-width="3"></path><g id="node_text10" fill="black"><text id="kity_text_97" text-rendering="inherit" font-size="12" dy=".8em" y="75.58000183105469" x="861.5">0 </text></g></g><g id="minder_node11"><g id="node_expander10" style="cursor: pointer;"><path id="kity_path_108" fill="white" stroke="gray" d="M851.5,135.5A6,6,0,1,1,839.5,135.5A6,6,0,1,1,851.5,135.5"></path><path id="kity_path_109" fill="none" stroke="gray" d="M841,135.5L850,135.5"></path></g><path id="node_outline11" fill="none" stroke="none" d="M856.5,124.5h89a5,5,0,0,1,5,5v12a5,5,0,0,1,-5,5h-89a5,5,0,0,1,-5,-5v-12a5,5,0,0,1,5,-5z" stroke-width="3"></path><g id="node_text11" fill="black"><text id="kity_text_105" text-rendering="inherit" font-size="12" dy=".8em" y="127.58000183105469" x="861.5">Dicimal Digits</text></g></g><g id="minder_node12"><g id="node_expander11" style="cursor: pointer;" display="none"><path id="kity_path_116" fill="white" stroke="gray" d="M990.5,135.5A6,6,0,1,1,978.5,135.5A6,6,0,1,1,990.5,135.5"></path><path id="kity_path_117" fill="none" stroke="gray"></path></g><path id="node_outline12" fill="none" stroke="none" d="M995.5,124.5h80a5,5,0,0,1,5,5v12a5,5,0,0,1,-5,5h-80a5,5,0,0,1,-5,-5v-12a5,5,0,0,1,5,-5z" stroke-width="3"></path><g id="node_text12" fill="black"><text id="kity_text_113" text-rendering="inherit" font-size="12" dy=".8em" y="127.58000183105469" x="1000.5">0123456789</text></g></g><g id="minder_node13"><g id="node_expander12" style="cursor: pointer;" display="none"><path id="kity_path_124" fill="white" stroke="gray" d="M1069.5,31.5A6,6,0,1,1,1057.5,31.5A6,6,0,1,1,1069.5,31.5"></path><path id="kity_path_125" fill="none" stroke="gray"></path></g><path id="node_outline13" fill="none" stroke="none" d="M1074.5,20.5h73a5,5,0,0,1,5,5v12a5,5,0,0,1,-5,5h-73a5,5,0,0,1,-5,-5v-12a5,5,0,0,1,5,-5z" stroke-width="3"></path><g id="node_text13" fill="black"><text id="kity_text_121" text-rendering="inherit" font-size="12" dy=".8em" y="23.580001831054688" x="1079.5">123456789</text></g></g><g id="minder_node14"><g id="node_expander13" style="cursor: pointer;"><path id="kity_path_132" fill="white" stroke="gray" d="M851.5,265.5A6,6,0,1,1,839.5,265.5A6,6,0,1,1,851.5,265.5"></path><path id="kity_path_133" fill="none" stroke="gray" d="M841,265.5L850,265.5"></path></g><path id="node_outline14" fill="none" stroke="none" d="M856.5,254.5h91a5,5,0,0,1,5,5v12a5,5,0,0,1,-5,5h-91a5,5,0,0,1,-5,-5v-12a5,5,0,0,1,5,-5z" stroke-width="3"></path><g id="node_text14" fill="black"><text id="kity_text_129" text-rendering="inherit" font-size="12" dy=".8em" y="257.5800018310547" x="861.5">Exponent Part</text></g></g><g id="minder_node15"><g id="node_expander14" style="cursor: pointer;"><path id="kity_path_140" fill="white" stroke="gray" d="M992.5,213.5A6,6,0,1,1,980.5,213.5A6,6,0,1,1,992.5,213.5"></path><path id="kity_path_141" fill="none" stroke="gray" d="M982,213.5L991,213.5"></path></g><path id="node_outline15" fill="none" stroke="none" d="M997.5,202.5h119a5,5,0,0,1,5,5v12a5,5,0,0,1,-5,5h-119a5,5,0,0,1,-5,-5v-12a5,5,0,0,1,5,-5z" stroke-width="3"></path><g id="node_text15" fill="black"><text id="kity_text_137" text-rendering="inherit" font-size="12" dy=".8em" y="205.5800018310547" x="1002.5">Exponent Indicator</text></g></g><g id="minder_node16"><g id="node_expander15" style="cursor: pointer;"><path id="kity_path_148" fill="white" stroke="gray" d="M992.5,317.5A6,6,0,1,1,980.5,317.5A6,6,0,1,1,992.5,317.5"></path><path id="kity_path_149" fill="none" stroke="gray" d="M982,317.5L991,317.5"></path></g><path id="node_outline16" fill="none" stroke="none" d="M997.5,306.5h95a5,5,0,0,1,5,5v12a5,5,0,0,1,-5,5h-95a5,5,0,0,1,-5,-5v-12a5,5,0,0,1,5,-5z" stroke-width="3"></path><g id="node_text16" fill="black"><text id="kity_text_145" text-rendering="inherit" font-size="12" dy=".8em" y="309.5800018310547" x="1002.5">Signed Integer</text></g></g><g id="minder_node17"><g id="node_expander16" style="cursor: pointer;" display="none"><path id="kity_path_156" fill="white" stroke="gray" d="M1161.5,187.5A6,6,0,1,1,1149.5,187.5A6,6,0,1,1,1161.5,187.5"></path><path id="kity_path_157" fill="none" stroke="gray"></path></g><path id="node_outline17" fill="none" stroke="none" d="M1166.5,176.5h17a5,5,0,0,1,5,5v12a5,5,0,0,1,-5,5h-17a5,5,0,0,1,-5,-5v-12a5,5,0,0,1,5,-5z" stroke-width="3"></path><g id="node_text17" fill="black"><text id="kity_text_153" text-rendering="inherit" font-size="12" dy=".8em" y="179.5800018310547" x="1171.5">e</text></g></g><g id="minder_node18"><g id="node_expander17" style="cursor: pointer;" display="none"><path id="kity_path_164" fill="white" stroke="gray" d="M1161.5,239.5A6,6,0,1,1,1149.5,239.5A6,6,0,1,1,1161.5,239.5"></path><path id="kity_path_165" fill="none" stroke="gray"></path></g><path id="node_outline18" fill="none" stroke="none" d="M1166.5,228.5h17a5,5,0,0,1,5,5v12a5,5,0,0,1,-5,5h-17a5,5,0,0,1,-5,-5v-12a5,5,0,0,1,5,-5z" stroke-width="3"></path><g id="node_text18" fill="black"><text id="kity_text_161" text-rendering="inherit" font-size="12" dy=".8em" y="231.5800018310547" x="1171.5">E</text></g></g><g id="minder_node19"><g id="node_expander18" style="cursor: pointer;" display="none"><path id="kity_path_172" fill="white" stroke="gray" d="M1137.5,291.5A6,6,0,1,1,1125.5,291.5A6,6,0,1,1,1137.5,291.5"></path><path id="kity_path_173" fill="none" stroke="gray"></path></g><path id="node_outline19" fill="none" stroke="none" d="M1142.5,280.5h102a5,5,0,0,1,5,5v12a5,5,0,0,1,-5,5h-102a5,5,0,0,1,-5,-5v-12a5,5,0,0,1,5,-5z" stroke-width="3"></path><g id="node_text19" fill="black"><text id="kity_text_169" text-rendering="inherit" font-size="12" dy=".8em" y="283.5800018310547" x="1147.5">- Decimal Digits</text></g></g><g id="minder_node20"><g id="node_expander19" style="cursor: pointer;" display="none"><path id="kity_path_180" fill="white" stroke="gray" d="M1137.5,343.5A6,6,0,1,1,1125.5,343.5A6,6,0,1,1,1137.5,343.5"></path><path id="kity_path_181" fill="none" stroke="gray"></path></g><path id="node_outline20" fill="none" stroke="none" d="M1142.5,332.5h105a5,5,0,0,1,5,5v12a5,5,0,0,1,-5,5h-105a5,5,0,0,1,-5,-5v-12a5,5,0,0,1,5,-5z" stroke-width="3"></path><g id="node_text20" fill="black"><text id="kity_text_177" text-rendering="inherit" font-size="12" dy=".8em" y="335.5800018310547" x="1147.5">+ Decimal Digits</text></g></g><g id="minder_node21"><g id="node_expander20" style="cursor: pointer;"><path id="kity_path_188" fill="white" stroke="gray" d="M482.5,535.5A6,6,0,1,1,470.5,535.5A6,6,0,1,1,482.5,535.5"></path><path id="kity_path_189" fill="none" stroke="gray" d="M472,535.5L481,535.5"></path></g><path id="node_outline21" fill="none" stroke="none" d="M487.5,524.5h104a5,5,0,0,1,5,5v12a5,5,0,0,1,-5,5h-104a5,5,0,0,1,-5,-5v-12a5,5,0,0,1,5,-5z" stroke-width="3"></path><g id="node_text21" fill="black"><text id="kity_text_185" text-rendering="inherit" font-size="12" dy=".8em" y="527.5800018310547" x="492.5">0b + BinaryDigit</text></g></g><g id="minder_node22"><g id="node_expander21" style="cursor: pointer;" display="none"><path id="kity_path_196" fill="white" stroke="gray" d="M482.5,613.5A6,6,0,1,1,470.5,613.5A6,6,0,1,1,482.5,613.5"></path><path id="kity_path_197" fill="none" stroke="gray"></path></g><path id="node_outline22" fill="none" stroke="none" d="M487.5,602.5h100a5,5,0,0,1,5,5v12a5,5,0,0,1,-5,5h-100a5,5,0,0,1,-5,-5v-12a5,5,0,0,1,5,-5z" stroke-width="3"></path><g id="node_text22" fill="black"><text id="kity_text_193" text-rendering="inherit" font-size="12" dy=".8em" y="605.5800018310547" x="492.5">0B +BinaryDigit</text></g></g><g id="minder_node23"><g id="node_expander22" style="cursor: pointer;" display="none"><path id="kity_path_204" fill="white" stroke="gray" d="M636.5,509.5A6,6,0,1,1,624.5,509.5A6,6,0,1,1,636.5,509.5"></path><path id="kity_path_205" fill="none" stroke="gray"></path></g><path id="node_outline23" fill="none" stroke="none" d="M641.5,498.5h17a5,5,0,0,1,5,5v12a5,5,0,0,1,-5,5h-17a5,5,0,0,1,-5,-5v-12a5,5,0,0,1,5,-5z" stroke-width="3"></path><g id="node_text23" fill="black"><text id="kity_text_201" text-rendering="inherit" font-size="12" dy=".8em" y="501.5800018310547" x="646.5">0</text></g></g><g id="minder_node24"><g id="node_expander23" style="cursor: pointer;" display="none"><path id="kity_path_212" fill="white" stroke="gray" d="M636.5,561.5A6,6,0,1,1,624.5,561.5A6,6,0,1,1,636.5,561.5"></path><path id="kity_path_213" fill="none" stroke="gray"></path></g><path id="node_outline24" fill="none" stroke="none" d="M641.5,550.5h17a5,5,0,0,1,5,5v12a5,5,0,0,1,-5,5h-17a5,5,0,0,1,-5,-5v-12a5,5,0,0,1,5,-5z" stroke-width="3"></path><g id="node_text24" fill="black"><text id="kity_text_209" text-rendering="inherit" font-size="12" dy=".8em" y="553.5800018310547" x="646.5">1</text></g></g><g id="minder_node25"><g id="node_expander24" style="cursor: pointer;"><path id="kity_path_220" fill="white" stroke="gray" d="M523.5,677.5A6,6,0,1,1,511.5,677.5A6,6,0,1,1,523.5,677.5"></path><path id="kity_path_221" fill="none" stroke="gray" d="M513,677.5L522,677.5"></path></g><path id="node_outline25" fill="none" stroke="none" d="M528.5,666.5h128a5,5,0,0,1,5,5v12a5,5,0,0,1,-5,5h-128a5,5,0,0,1,-5,-5v-12a5,5,0,0,1,5,-5z" stroke-width="3"></path><g id="node_text25" fill="black"><text id="kity_text_217" text-rendering="inherit" font-size="12" dy=".8em" y="669.5800018310547" x="533.5">0o | 0O + OctalＤigit</text></g></g><g id="minder_node26"><g id="node_expander25" style="cursor: pointer;" display="none"><path id="kity_path_228" fill="white" stroke="gray" d="M701.5,677.5A6,6,0,1,1,689.5,677.5A6,6,0,1,1,701.5,677.5"></path><path id="kity_path_229" fill="none" stroke="gray"></path></g><path id="node_outline26" fill="none" stroke="none" d="M706.5,666.5h66a5,5,0,0,1,5,5v12a5,5,0,0,1,-5,5h-66a5,5,0,0,1,-5,-5v-12a5,5,0,0,1,5,-5z" stroke-width="3"></path><g id="node_text26" fill="black"><text id="kity_text_225" text-rendering="inherit" font-size="12" dy=".8em" y="669.5800018310547" x="711.5">01234567</text></g></g><g id="minder_node27"><g id="node_expander26" style="cursor: pointer;"><path id="kity_path_236" fill="white" stroke="gray" d="M514.5,743.5A6,6,0,1,1,502.5,743.5A6,6,0,1,1,514.5,743.5"></path><path id="kity_path_237" fill="none" stroke="gray" d="M504,743.5L513,743.5"></path></g><path id="node_outline27" fill="none" stroke="none" d="M519.5,732.5h118a5,5,0,0,1,5,5v12a5,5,0,0,1,-5,5h-118a5,5,0,0,1,-5,-5v-12a5,5,0,0,1,5,-5z" stroke-width="3"></path><g id="node_text27" fill="black"><text id="kity_text_233" text-rendering="inherit" font-size="12" dy=".8em" y="735.5800018310547" x="524.5">0x | 0X + Hex Digit</text></g></g><g id="minder_node28"><g id="node_expander27" style="cursor: pointer;" display="none"><path id="kity_path_244" fill="white" stroke="gray" d="M682.5,743.5A6,6,0,1,1,670.5,743.5A6,6,0,1,1,682.5,743.5"></path><path id="kity_path_245" fill="none" stroke="gray"></path></g><path id="node_outline28" fill="none" stroke="none" d="M687.5,732.5h116a5,5,0,0,1,5,5v12a5,5,0,0,1,-5,5h-116a5,5,0,0,1,-5,-5v-12a5,5,0,0,1,5,-5z" stroke-width="3"></path><g id="node_text28" fill="black"><text id="kity_text_241" text-rendering="inherit" font-size="12" dy=".8em" y="735.5800018310547" x="692.5">0123456789a-fA-F</text></g></g></g></g></svg>