<svg id="kity_svg_6" xmlns="http://www.w3.org/2000/svg" xmlns:xlink="http://www.w3.org/1999/xlink" version="1.1" width="1686" height="897" style="background: rgb(251, 251, 251) none repeat scroll 0% 0%; visibility: visible;" viewBox="0 0 1686 897"><defs id="kity_defs_7"><linearGradient id="kity_linearGradient_17" x1="0" y1="0" x2="0" y2="1"><stop id="kity_stop_18" offset="0" stop-color="rgb(255, 255, 255)"></stop><stop id="kity_stop_19" offset="1" stop-color="rgb(204, 204, 204)"></stop></linearGradient><marker id="kity_marker_2" orient="auto" refX="6" refY="0" viewBox="-7 -7 14 14" markerWidth="7" markerHeight="7" markerUnits="userSpaceOnUse"><path id="kity_path_3" fill="rgb(115, 161, 191)" stroke="none" d="M6,0A6,6,0,1,1,-6,0A6,6,0,1,1,6,0"></path></marker></defs><g id="kity_g_8"><g id="minder1" text-rendering="optimize-speed"><g id="minder_connect_group1"><path id="kity_path_31" fill="none" stroke="rgb(115, 161, 191)" stroke-width="1" d="M93,473.5A190.5,0,0,0,1,283.5,473.5"></path><path id="kity_path_33" fill="none" stroke="rgb(115, 161, 191)" stroke-width="1" d="M500.5,473.5C515.5,473.5,515.5,97.5,530.5,97.5L658.5,97.5"></path><path id="kity_path_35" fill="none" stroke="rgb(115, 161, 191)" stroke-width="1" d="M658.5,97.5C673.5,97.5,673.5,45.5,688.5,45.5L742.5,45.5"></path><path id="kity_path_37" fill="none" stroke="rgb(115, 161, 191)" stroke-width="1" d="M658.5,97.5C673.5,97.5,673.5,97.5,688.5,97.5L752.5,97.5"></path><path id="kity_path_39" fill="none" stroke="rgb(115, 161, 191)" stroke-width="1" d="M658.5,97.5C673.5,97.5,673.5,149.5,688.5,149.5L827.5,149.5"></path><path id="kity_path_41" fill="none" stroke="rgb(115, 161, 191)" stroke-width="1" d="M500.5,473.5C515.5,473.5,515.5,201.5,530.5,201.5L642.5,201.5"></path><path id="kity_path_43" fill="none" stroke="rgb(115, 161, 191)" stroke-width="1" d="M500.5,473.5C515.5,473.5,515.5,614.5,530.5,614.5L731.5,614.5"></path><path id="kity_path_45" fill="none" stroke="rgb(115, 161, 191)" stroke-width="1" d="M731.5,614.5C746.5,614.5,746.5,429.5,761.5,429.5L948.5,429.5"></path><path id="kity_path_47" fill="none" stroke="rgb(115, 161, 191)" stroke-width="1" d="M948.5,429.5C963.5,429.5,963.5,306.5,978.5,306.5L1117.5,306.5"></path><path id="kity_path_49" fill="none" stroke="rgb(115, 161, 191)" stroke-width="1" d="M1117.5,306.5C1132.5,306.5,1132.5,254.5,1147.5,254.5L1180.5,254.5"></path><path id="kity_path_51" fill="none" stroke="rgb(115, 161, 191)" stroke-width="1" d="M1117.5,306.5C1132.5,306.5,1132.5,306.5,1147.5,306.5L1182.5,306.5"></path><path id="kity_path_53" fill="none" stroke="rgb(115, 161, 191)" stroke-width="1" d="M1117.5,306.5C1132.5,306.5,1132.5,358.5,1147.5,358.5L1192.5,358.5"></path><path id="kity_path_55" fill="none" stroke="none" display="none"></path><path id="kity_path_57" fill="none" stroke="none" display="none"></path><path id="kity_path_59" fill="none" stroke="none" display="none"></path><path id="kity_path_61" fill="none" stroke="none" display="none"></path><path id="kity_path_63" fill="none" stroke="none" display="none"></path><path id="kity_path_65" fill="none" stroke="none" display="none"></path><path id="kity_path_67" fill="none" stroke="rgb(115, 161, 191)" stroke-width="1" d="M948.5,429.5C963.5,429.5,963.5,553.5,978.5,553.5L1131.5,553.5"></path><path id="kity_path_69" fill="none" stroke="rgb(115, 161, 191)" stroke-width="1" d="M1131.5,553.5C1146.5,553.5,1146.5,553.5,1161.5,553.5L1288.5,553.5"></path><path id="kity_path_71" fill="none" stroke="rgb(115, 161, 191)" stroke-width="1" d="M1288.5,553.5C1303.5,553.5,1303.5,488.5,1318.5,488.5L1469.5,488.5"></path><path id="kity_path_73" fill="none" stroke="rgb(115, 161, 191)" stroke-width="1" d="M1469.5,488.5C1484.5,488.5,1484.5,410.5,1499.5,410.5L1666.5,410.5"></path><path id="kity_path_75" fill="none" stroke="rgb(115, 161, 191)" stroke-width="1" d="M1469.5,488.5C1484.5,488.5,1484.5,462.5,1499.5,462.5L1606.5,462.5"></path><path id="kity_path_77" fill="none" stroke="rgb(115, 161, 191)" stroke-width="1" d="M1469.5,488.5C1484.5,488.5,1484.5,514.5,1499.5,514.5L1535.5,514.5"></path><path id="kity_path_79" fill="none" stroke="rgb(115, 161, 191)" stroke-width="1" d="M1469.5,488.5C1484.5,488.5,1484.5,566.5,1499.5,566.5L1536.5,566.5"></path><path id="kity_path_81" fill="none" stroke="rgb(115, 161, 191)" stroke-width="1" d="M1288.5,553.5C1303.5,553.5,1303.5,618.5,1318.5,618.5L1468.5,618.5"></path><path id="kity_path_83" fill="none" stroke="rgb(115, 161, 191)" stroke-width="1" d="M731.5,614.5C746.5,614.5,746.5,669.5,761.5,669.5L798.5,669.5"></path><path id="kity_path_85" fill="none" stroke="rgb(115, 161, 191)" stroke-width="1" d="M731.5,614.5C746.5,614.5,746.5,721.5,761.5,721.5L915.5,721.5"></path><path id="kity_path_87" fill="none" stroke="rgb(115, 161, 191)" stroke-width="1" d="M915.5,721.5C930.5,721.5,930.5,721.5,945.5,721.5L1091.5,721.5"></path><path id="kity_path_89" fill="none" stroke="rgb(115, 161, 191)" stroke-width="1" d="M731.5,614.5C746.5,614.5,746.5,799.5,761.5,799.5L941.5,799.5"></path><path id="kity_path_91" fill="none" stroke="rgb(115, 161, 191)" stroke-width="1" d="M941.5,799.5C956.5,799.5,956.5,773.5,971.5,773.5L1069.5,773.5"></path><path id="kity_path_93" fill="none" stroke="rgb(115, 161, 191)" stroke-width="1" d="M1069.5,773.5C1084.5,773.5,1084.5,773.5,1099.5,773.5L1198.5,773.5"></path><path id="kity_path_95" fill="none" stroke="rgb(115, 161, 191)" stroke-width="1" d="M941.5,799.5C956.5,799.5,956.5,825.5,971.5,825.5L1084.5,825.5"></path><path id="kity_path_97" fill="none" stroke="rgb(115, 161, 191)" stroke-width="1" d="M500.5,473.5C515.5,473.5,515.5,877.5,530.5,877.5L662.5,877.5"></path><path id="kity_path_99" fill="none" stroke="rgb(115, 161, 191)" stroke-width="1" d="M662.5,877.5C677.5,877.5,677.5,877.5,692.5,877.5L877.5,877.5"></path></g><g id="minder_node1"><path id="node_outline1" fill="rgb(115, 161, 191)" stroke="rgb(57, 80, 96)" d="M25.5,453.5h135a5,5,0,0,1,5,5v30a5,5,0,0,1,-5,5h-135a5,5,0,0,1,-5,-5v-30a5,5,0,0,1,5,-5z" stroke-width="3"></path><g id="node_text1" fill="white"><text id="kity_text_22" text-rendering="inherit" font-size="16" dy=".8em" y="462.939998626709" x="44.5">String Literal </text></g></g><g id="kity_g_12"><path id="kity_path_13" fill="none" stroke="none" d="M44.5,473.5h0v0h0z"></path></g><g id="kity_g_14"><path id="kity_path_15" fill="none" stroke="none" d="M44.5,473.5h0v0h0z"></path><path id="kity_path_16" fill="none" stroke="none"></path></g><g id="minder_node2"><g id="node_expander35" style="cursor: pointer;"><path id="kity_path_308" fill="white" stroke="gray" d="M284.5,473.5A6,6,0,1,1,272.5,473.5A6,6,0,1,1,284.5,473.5"></path><path id="kity_path_309" fill="none" stroke="gray" d="M274,473.5L283,473.5"></path></g><path id="node_outline36" fill="rgb(238, 243, 246)" stroke="rgb(115, 161, 191)" d="M288.5,460.5h209a3,3,0,0,1,3,3v20a3,3,0,0,1,-3,3h-209a3,3,0,0,1,-3,-3v-20a3,3,0,0,1,3,-3z" stroke-width="1"></path><g id="node_text36" fill="black"><text id="kity_text_169" text-rendering="inherit" font-size="14" dy=".8em" y="464.2599983215332" x="305.5">Double/Single String Char</text></g></g><g id="minder_node3"><g id="node_expander4" style="cursor: pointer;"><path id="kity_path_215" fill="white" stroke="gray" d="M540.5,83.5A6,6,0,1,1,528.5,83.5A6,6,0,1,1,540.5,83.5"></path><path id="kity_path_216" fill="none" stroke="gray" d="M530,83.5L539,83.5"></path></g><path id="node_outline5" fill="none" stroke="none" d="M545.5,72.5h108a5,5,0,0,1,5,5v12a5,5,0,0,1,-5,5h-108a5,5,0,0,1,-5,-5v-12a5,5,0,0,1,5,-5z"></path><g id="node_text5" fill="black"><text id="kity_text_107" text-rendering="inherit" font-size="12" dy=".8em" y="75.58000183105469" x="550.5">Source Character </text></g></g><g id="minder_node4"><g id="node_expander1" style="cursor: pointer;" display="none"><path id="kity_path_206" fill="white" stroke="gray" d="M698.5,31.5A6,6,0,1,1,686.5,31.5A6,6,0,1,1,698.5,31.5"></path><path id="kity_path_207" fill="none" stroke="gray"></path></g><path id="node_outline2" fill="none" stroke="none" d="M703.5,20.5h34a5,5,0,0,1,5,5v12a5,5,0,0,1,-5,5h-34a5,5,0,0,1,-5,-5v-12a5,5,0,0,1,5,-5z"></path><g id="node_text2" fill="black"><text id="kity_text_101" text-rendering="inherit" font-size="12" dy=".8em" y="23.580001831054688" x="708.5">no "</text></g></g><g id="minder_node5"><g id="node_expander2" style="cursor: pointer;" display="none"><path id="kity_path_209" fill="white" stroke="gray" d="M698.5,83.5A6,6,0,1,1,686.5,83.5A6,6,0,1,1,698.5,83.5"></path><path id="kity_path_210" fill="none" stroke="gray"></path></g><path id="node_outline3" fill="none" stroke="none" d="M703.5,72.5h44a5,5,0,0,1,5,5v12a5,5,0,0,1,-5,5h-44a5,5,0,0,1,-5,-5v-12a5,5,0,0,1,5,-5z"></path><g id="node_text3" fill="black"><text id="kity_text_103" text-rendering="inherit" font-size="12" dy=".8em" y="75.58000183105469" x="708.5">no "\"</text></g></g><g id="minder_node6"><g id="node_expander3" style="cursor: pointer;" display="none"><path id="kity_path_212" fill="white" stroke="gray" d="M698.5,135.5A6,6,0,1,1,686.5,135.5A6,6,0,1,1,698.5,135.5"></path><path id="kity_path_213" fill="none" stroke="gray"></path></g><path id="node_outline4" fill="none" stroke="none" d="M703.5,124.5h119a5,5,0,0,1,5,5v12a5,5,0,0,1,-5,5h-119a5,5,0,0,1,-5,-5v-12a5,5,0,0,1,5,-5z"></path><g id="node_text4" fill="black"><text id="kity_text_105" text-rendering="inherit" font-size="12" dy=".8em" y="127.58000183105469" x="708.5">no Line Terminator</text></g></g><g id="minder_node7"><g id="node_expander5" style="cursor: pointer;" display="none"><path id="kity_path_218" fill="white" stroke="gray" d="M540.5,187.5A6,6,0,1,1,528.5,187.5A6,6,0,1,1,540.5,187.5"></path><path id="kity_path_219" fill="none" stroke="gray"></path></g><path id="node_outline6" fill="none" stroke="none" d="M545.5,176.5h92a5,5,0,0,1,5,5v12a5,5,0,0,1,-5,5h-92a5,5,0,0,1,-5,-5v-12a5,5,0,0,1,5,-5z"></path><g id="node_text6" fill="black"><text id="kity_text_109" text-rendering="inherit" font-size="12" dy=".8em" y="179.5800018310547" x="550.5">&lt;LS&gt; or &lt;PS&gt;</text></g></g><g id="minder_node8"><g id="node_expander32" style="cursor: pointer;"><path id="kity_path_299" fill="white" stroke="gray" d="M540.5,600.5A6,6,0,1,1,528.5,600.5A6,6,0,1,1,540.5,600.5"></path><path id="kity_path_300" fill="none" stroke="gray" d="M530,600.5L539,600.5"></path></g><path id="node_outline33" fill="none" stroke="none" d="M545.5,589.5h181a5,5,0,0,1,5,5v12a5,5,0,0,1,-5,5h-181a5,5,0,0,1,-5,-5v-12a5,5,0,0,1,5,-5z"></path><g id="node_text33" fill="black"><text id="kity_text_163" text-rendering="inherit" font-size="12" dy=".8em" y="592.5800018310547" x="550.5">Excape Sequence（转义序列）</text></g></g><g id="minder_node9"><g id="node_expander24" style="cursor: pointer;"><path id="kity_path_275" fill="white" stroke="gray" d="M771.5,415.5A6,6,0,1,1,759.5,415.5A6,6,0,1,1,771.5,415.5"></path><path id="kity_path_276" fill="none" stroke="gray" d="M761,415.5L770,415.5"></path></g><path id="node_outline25" fill="none" stroke="none" d="M776.5,404.5h167a5,5,0,0,1,5,5v12a5,5,0,0,1,-5,5h-167a5,5,0,0,1,-5,-5v-12a5,5,0,0,1,5,-5z"></path><g id="node_text25" fill="black"><text id="kity_text_147" text-rendering="inherit" font-size="12" dy=".8em" y="407.5800018310547" x="781.5">Character Escape Sequence</text></g></g><g id="minder_node10"><g id="node_expander15" style="cursor: pointer;"><path id="kity_path_248" fill="white" stroke="gray" d="M988.5,292.5A6,6,0,1,1,976.5,292.5A6,6,0,1,1,988.5,292.5"></path><path id="kity_path_249" fill="none" stroke="gray" d="M978,292.5L987,292.5"></path></g><path id="node_outline16" fill="none" stroke="none" d="M993.5,281.5h119a5,5,0,0,1,5,5v12a5,5,0,0,1,-5,5h-119a5,5,0,0,1,-5,-5v-12a5,5,0,0,1,5,-5z"></path><g id="node_text16" fill="black"><text id="kity_text_129" text-rendering="inherit" font-size="12" dy=".8em" y="284.5800018310547" x="998.5">Single Excape Char </text></g></g><g id="minder_node11"><g id="node_expander6" style="cursor: pointer;" display="none"><path id="kity_path_221" fill="white" stroke="gray" d="M1157.5,240.5A6,6,0,1,1,1145.5,240.5A6,6,0,1,1,1157.5,240.5"></path><path id="kity_path_222" fill="none" stroke="gray"></path></g><path id="node_outline7" fill="none" stroke="none" d="M1162.5,229.5h13a5,5,0,0,1,5,5v12a5,5,0,0,1,-5,5h-13a5,5,0,0,1,-5,-5v-12a5,5,0,0,1,5,-5z"></path><g id="node_text7" fill="black"><text id="kity_text_111" text-rendering="inherit" font-size="12" dy=".8em" y="232.5800018310547" x="1167.5">'</text></g></g><g id="minder_node12"><g id="node_expander7" style="cursor: pointer;" display="none"><path id="kity_path_224" fill="white" stroke="gray" d="M1157.5,292.5A6,6,0,1,1,1145.5,292.5A6,6,0,1,1,1157.5,292.5"></path><path id="kity_path_225" fill="none" stroke="gray"></path></g><path id="node_outline8" fill="none" stroke="none" d="M1162.5,281.5h15a5,5,0,0,1,5,5v12a5,5,0,0,1,-5,5h-15a5,5,0,0,1,-5,-5v-12a5,5,0,0,1,5,-5z"></path><g id="node_text8" fill="black"><text id="kity_text_113" text-rendering="inherit" font-size="12" dy=".8em" y="284.5800018310547" x="1167.5">"</text></g></g><g id="minder_node13"><g id="node_expander14" style="cursor: pointer;"><path id="kity_path_245" fill="white" stroke="gray" d="M1157.5,344.5A6,6,0,1,1,1145.5,344.5A6,6,0,1,1,1157.5,344.5"></path><path id="kity_path_246" fill="none" stroke="gray" d="M1147,344.5L1156,344.5M1151.5,340L1151.5,349"></path></g><path id="node_outline15" fill="none" stroke="none" d="M1162.5,333.5h25a5,5,0,0,1,5,5v12a5,5,0,0,1,-5,5h-25a5,5,0,0,1,-5,-5v-12a5,5,0,0,1,5,-5z"></path><g id="node_text15" fill="black"><text id="kity_text_127" text-rendering="inherit" font-size="12" dy=".8em" y="336.5800018310547" x="1167.5">"\"</text></g></g><g id="minder_node14" display="none"><g id="node_expander8" style="cursor: pointer;" display="none"><path id="kity_path_227" fill="white" stroke="gray" d="M1232.5,194.5A6,6,0,1,1,1220.5,194.5A6,6,0,1,1,1232.5,194.5"></path><path id="kity_path_228" fill="none" stroke="gray"></path></g><path id="node_outline9" fill="none" stroke="none" d="M1227.5,183.5h11a5,5,0,0,1,5,5v12a5,5,0,0,1,-5,5h-11a5,5,0,0,1,-5,-5v-12a5,5,0,0,1,5,-5z"></path><g id="node_text9" fill="black"><text id="kity_text_115" text-rendering="inherit" font-size="12" dy=".8em" y="186.5800018310547" x="1232.5">b</text></g></g><g id="minder_node15" display="none"><g id="node_expander9" style="cursor: pointer;" display="none"><path id="kity_path_230" fill="white" stroke="gray" d="M1232.5,224.5A6,6,0,1,1,1220.5,224.5A6,6,0,1,1,1232.5,224.5"></path><path id="kity_path_231" fill="none" stroke="gray"></path></g><path id="node_outline10" fill="none" stroke="none" d="M1227.5,213.5h11a5,5,0,0,1,5,5v12a5,5,0,0,1,-5,5h-11a5,5,0,0,1,-5,-5v-12a5,5,0,0,1,5,-5z"></path><g id="node_text10" fill="black"><text id="kity_text_117" text-rendering="inherit" font-size="12" dy=".8em" y="216.5800018310547" x="1232.5">f</text></g></g><g id="minder_node16" display="none"><g id="node_expander10" style="cursor: pointer;" display="none"><path id="kity_path_233" fill="white" stroke="gray" d="M1232.5,254.5A6,6,0,1,1,1220.5,254.5A6,6,0,1,1,1232.5,254.5"></path><path id="kity_path_234" fill="none" stroke="gray"></path></g><path id="node_outline11" fill="none" stroke="none" d="M1227.5,243.5h11a5,5,0,0,1,5,5v12a5,5,0,0,1,-5,5h-11a5,5,0,0,1,-5,-5v-12a5,5,0,0,1,5,-5z"></path><g id="node_text11" fill="black"><text id="kity_text_119" text-rendering="inherit" font-size="12" dy=".8em" y="246.5800018310547" x="1232.5">n</text></g></g><g id="minder_node17" display="none"><g id="node_expander11" style="cursor: pointer;" display="none"><path id="kity_path_236" fill="white" stroke="gray" d="M1232.5,284.5A6,6,0,1,1,1220.5,284.5A6,6,0,1,1,1232.5,284.5"></path><path id="kity_path_237" fill="none" stroke="gray"></path></g><path id="node_outline12" fill="none" stroke="none" d="M1227.5,273.5h11a5,5,0,0,1,5,5v12a5,5,0,0,1,-5,5h-11a5,5,0,0,1,-5,-5v-12a5,5,0,0,1,5,-5z"></path><g id="node_text12" fill="black"><text id="kity_text_121" text-rendering="inherit" font-size="12" dy=".8em" y="276.5800018310547" x="1232.5">r</text></g></g><g id="minder_node18" display="none"><g id="node_expander12" style="cursor: pointer;" display="none"><path id="kity_path_239" fill="white" stroke="gray" d="M1232.5,314.5A6,6,0,1,1,1220.5,314.5A6,6,0,1,1,1232.5,314.5"></path><path id="kity_path_240" fill="none" stroke="gray"></path></g><path id="node_outline13" fill="none" stroke="none" d="M1227.5,303.5h11a5,5,0,0,1,5,5v12a5,5,0,0,1,-5,5h-11a5,5,0,0,1,-5,-5v-12a5,5,0,0,1,5,-5z"></path><g id="node_text13" fill="black"><text id="kity_text_123" text-rendering="inherit" font-size="12" dy=".8em" y="306.5800018310547" x="1232.5">t</text></g></g><g id="minder_node19" display="none"><g id="node_expander13" style="cursor: pointer;" display="none"><path id="kity_path_242" fill="white" stroke="gray" d="M1232.5,344.5A6,6,0,1,1,1220.5,344.5A6,6,0,1,1,1232.5,344.5"></path><path id="kity_path_243" fill="none" stroke="gray"></path></g><path id="node_outline14" fill="none" stroke="none" d="M1227.5,333.5h11a5,5,0,0,1,5,5v12a5,5,0,0,1,-5,5h-11a5,5,0,0,1,-5,-5v-12a5,5,0,0,1,5,-5z"></path><g id="node_text14" fill="black"><text id="kity_text_125" text-rendering="inherit" font-size="12" dy=".8em" y="336.5800018310547" x="1232.5">v</text></g></g><g id="minder_node20"><g id="node_expander23" style="cursor: pointer;"><path id="kity_path_272" fill="white" stroke="gray" d="M988.5,539.5A6,6,0,1,1,976.5,539.5A6,6,0,1,1,988.5,539.5"></path><path id="kity_path_273" fill="none" stroke="gray" d="M978,539.5L987,539.5"></path></g><path id="node_outline24" fill="none" stroke="none" d="M993.5,528.5h133a5,5,0,0,1,5,5v12a5,5,0,0,1,-5,5h-133a5,5,0,0,1,-5,-5v-12a5,5,0,0,1,5,-5z"></path><g id="node_text24" fill="black"><text id="kity_text_145" text-rendering="inherit" font-size="12" dy=".8em" y="531.5800018310547" x="998.5">NonEscape Character</text></g></g><g id="minder_node21"><g id="node_expander22" style="cursor: pointer;"><path id="kity_path_269" fill="white" stroke="gray" d="M1171.5,539.5A6,6,0,1,1,1159.5,539.5A6,6,0,1,1,1171.5,539.5"></path><path id="kity_path_270" fill="none" stroke="gray" d="M1161,539.5L1170,539.5"></path></g><path id="node_outline23" fill="none" stroke="none" d="M1176.5,528.5h107a5,5,0,0,1,5,5v12a5,5,0,0,1,-5,5h-107a5,5,0,0,1,-5,-5v-12a5,5,0,0,1,5,-5z"></path><g id="node_text23" fill="black"><text id="kity_text_143" text-rendering="inherit" font-size="12" dy=".8em" y="531.5800018310547" x="1181.5">source Character </text></g></g><g id="minder_node22"><g id="node_expander20" style="cursor: pointer;"><path id="kity_path_263" fill="white" stroke="gray" d="M1328.5,474.5A6,6,0,1,1,1316.5,474.5A6,6,0,1,1,1328.5,474.5"></path><path id="kity_path_264" fill="none" stroke="gray" d="M1318,474.5L1327,474.5"></path></g><path id="node_outline21" fill="none" stroke="none" d="M1333.5,463.5h131a5,5,0,0,1,5,5v12a5,5,0,0,1,-5,5h-131a5,5,0,0,1,-5,-5v-12a5,5,0,0,1,5,-5z"></path><g id="node_text21" fill="black"><text id="kity_text_139" text-rendering="inherit" font-size="12" dy=".8em" y="466.5800018310547" x="1338.5">not Escape Character</text></g></g><g id="minder_node23"><g id="node_expander16" style="cursor: pointer;" display="none"><path id="kity_path_251" fill="white" stroke="gray" d="M1509.5,396.5A6,6,0,1,1,1497.5,396.5A6,6,0,1,1,1509.5,396.5"></path><path id="kity_path_252" fill="none" stroke="gray"></path></g><path id="node_outline17" fill="none" stroke="none" d="M1514.5,385.5h147a5,5,0,0,1,5,5v12a5,5,0,0,1,-5,5h-147a5,5,0,0,1,-5,-5v-12a5,5,0,0,1,5,-5z"></path><g id="node_text17" fill="black"><text id="kity_text_131" text-rendering="inherit" font-size="12" dy=".8em" y="388.5800018310547" x="1519.5">Single Escape Character</text></g></g><g id="minder_node24"><g id="node_expander17" style="cursor: pointer;" display="none"><path id="kity_path_254" fill="white" stroke="gray" d="M1509.5,448.5A6,6,0,1,1,1497.5,448.5A6,6,0,1,1,1509.5,448.5"></path><path id="kity_path_255" fill="none" stroke="gray"></path></g><path id="node_outline18" fill="none" stroke="none" d="M1514.5,437.5h87a5,5,0,0,1,5,5v12a5,5,0,0,1,-5,5h-87a5,5,0,0,1,-5,-5v-12a5,5,0,0,1,5,-5z"></path><g id="node_text18" fill="black"><text id="kity_text_133" text-rendering="inherit" font-size="12" dy=".8em" y="440.5800018310547" x="1519.5">Decimal Digit</text></g></g><g id="minder_node25"><g id="node_expander18" style="cursor: pointer;" display="none"><path id="kity_path_257" fill="white" stroke="gray" d="M1509.5,500.5A6,6,0,1,1,1497.5,500.5A6,6,0,1,1,1509.5,500.5"></path><path id="kity_path_258" fill="none" stroke="gray"></path></g><path id="node_outline19" fill="none" stroke="none" d="M1514.5,489.5h16a5,5,0,0,1,5,5v12a5,5,0,0,1,-5,5h-16a5,5,0,0,1,-5,-5v-12a5,5,0,0,1,5,-5z"></path><g id="node_text19" fill="black"><text id="kity_text_135" text-rendering="inherit" font-size="12" dy=".8em" y="492.5800018310547" x="1519.5">x</text></g></g><g id="minder_node26"><g id="node_expander19" style="cursor: pointer;" display="none"><path id="kity_path_260" fill="white" stroke="gray" d="M1509.5,552.5A6,6,0,1,1,1497.5,552.5A6,6,0,1,1,1509.5,552.5"></path><path id="kity_path_261" fill="none" stroke="gray"></path></g><path id="node_outline20" fill="none" stroke="none" d="M1514.5,541.5h17a5,5,0,0,1,5,5v12a5,5,0,0,1,-5,5h-17a5,5,0,0,1,-5,-5v-12a5,5,0,0,1,5,-5z"></path><g id="node_text20" fill="black"><text id="kity_text_137" text-rendering="inherit" font-size="12" dy=".8em" y="544.5800018310547" x="1519.5">u</text></g></g><g id="minder_node27"><g id="node_expander21" style="cursor: pointer;" display="none"><path id="kity_path_266" fill="white" stroke="gray" d="M1328.5,604.5A6,6,0,1,1,1316.5,604.5A6,6,0,1,1,1328.5,604.5"></path><path id="kity_path_267" fill="none" stroke="gray"></path></g><path id="node_outline22" fill="none" stroke="none" d="M1333.5,593.5h130a5,5,0,0,1,5,5v12a5,5,0,0,1,-5,5h-130a5,5,0,0,1,-5,-5v-12a5,5,0,0,1,5,-5z"></path><g id="node_text22" fill="black"><text id="kity_text_141" text-rendering="inherit" font-size="12" dy=".8em" y="596.5800018310547" x="1338.5">not Line Termination</text></g></g><g id="minder_node28"><g id="node_expander25" style="cursor: pointer;" display="none"><path id="kity_path_278" fill="white" stroke="gray" d="M771.5,655.5A6,6,0,1,1,759.5,655.5A6,6,0,1,1,771.5,655.5"></path><path id="kity_path_279" fill="none" stroke="gray"></path></g><path id="node_outline26" fill="none" stroke="none" d="M776.5,644.5h17a5,5,0,0,1,5,5v12a5,5,0,0,1,-5,5h-17a5,5,0,0,1,-5,-5v-12a5,5,0,0,1,5,-5z"></path><g id="node_text26" fill="black"><text id="kity_text_149" text-rendering="inherit" font-size="12" dy=".8em" y="647.5800018310547" x="781.5">0</text></g></g><g id="minder_node29"><g id="node_expander27" style="cursor: pointer;"><path id="kity_path_284" fill="white" stroke="gray" d="M771.5,707.5A6,6,0,1,1,759.5,707.5A6,6,0,1,1,771.5,707.5"></path><path id="kity_path_285" fill="none" stroke="gray" d="M761,707.5L770,707.5"></path></g><path id="node_outline28" fill="none" stroke="none" d="M776.5,696.5h134a5,5,0,0,1,5,5v12a5,5,0,0,1,-5,5h-134a5,5,0,0,1,-5,-5v-12a5,5,0,0,1,5,-5z"></path><g id="node_text28" fill="black"><text id="kity_text_153" text-rendering="inherit" font-size="12" dy=".8em" y="699.5800018310547" x="781.5">Hex Escape Sequence</text></g></g><g id="minder_node30"><g id="node_expander26" style="cursor: pointer;" display="none"><path id="kity_path_281" fill="white" stroke="gray" d="M955.5,707.5A6,6,0,1,1,943.5,707.5A6,6,0,1,1,955.5,707.5"></path><path id="kity_path_282" fill="none" stroke="gray"></path></g><path id="node_outline27" fill="none" stroke="none" d="M960.5,696.5h126a5,5,0,0,1,5,5v12a5,5,0,0,1,-5,5h-126a5,5,0,0,1,-5,-5v-12a5,5,0,0,1,5,-5z"></path><g id="node_text27" fill="black"><text id="kity_text_151" text-rendering="inherit" font-size="12" dy=".8em" y="699.5800018310547" x="965.5">x HexDigit Hex Digit</text></g></g><g id="minder_node31"><g id="node_expander31" style="cursor: pointer;"><path id="kity_path_296" fill="white" stroke="gray" d="M771.5,785.5A6,6,0,1,1,759.5,785.5A6,6,0,1,1,771.5,785.5"></path><path id="kity_path_297" fill="none" stroke="gray" d="M761,785.5L770,785.5"></path></g><path id="node_outline32" fill="none" stroke="none" d="M776.5,774.5h160a5,5,0,0,1,5,5v12a5,5,0,0,1,-5,5h-160a5,5,0,0,1,-5,-5v-12a5,5,0,0,1,5,-5z"></path><g id="node_text32" fill="black"><text id="kity_text_161" text-rendering="inherit" font-size="12" dy=".8em" y="777.5800018310547" x="781.5">Unicode Escape Sequence </text></g></g><g id="minder_node32"><g id="node_expander29" style="cursor: pointer;"><path id="kity_path_290" fill="white" stroke="gray" d="M981.5,759.5A6,6,0,1,1,969.5,759.5A6,6,0,1,1,981.5,759.5"></path><path id="kity_path_291" fill="none" stroke="gray" d="M971,759.5L980,759.5"></path></g><path id="node_outline30" fill="none" stroke="none" d="M986.5,748.5h78a5,5,0,0,1,5,5v12a5,5,0,0,1,-5,5h-78a5,5,0,0,1,-5,-5v-12a5,5,0,0,1,5,-5z"></path><g id="node_text30" fill="black"><text id="kity_text_157" text-rendering="inherit" font-size="12" dy=".8em" y="751.5800018310547" x="991.5">u Hex4Digit</text></g></g><g id="minder_node33"><g id="node_expander28" style="cursor: pointer;" display="none"><path id="kity_path_287" fill="white" stroke="gray" d="M1109.5,759.5A6,6,0,1,1,1097.5,759.5A6,6,0,1,1,1109.5,759.5"></path><path id="kity_path_288" fill="none" stroke="gray"></path></g><path id="node_outline29" fill="none" stroke="none" d="M1114.5,748.5h79a5,5,0,0,1,5,5v12a5,5,0,0,1,-5,5h-79a5,5,0,0,1,-5,-5v-12a5,5,0,0,1,5,-5z"></path><g id="node_text29" fill="black"><text id="kity_text_155" text-rendering="inherit" font-size="12" dy=".8em" y="751.5800018310547" x="1119.5">HexDigit * 4</text></g></g><g id="minder_node34"><g id="node_expander30" style="cursor: pointer;" display="none"><path id="kity_path_293" fill="white" stroke="gray" d="M981.5,811.5A6,6,0,1,1,969.5,811.5A6,6,0,1,1,981.5,811.5"></path><path id="kity_path_294" fill="none" stroke="gray"></path></g><path id="node_outline31" fill="none" stroke="none" d="M986.5,800.5h93a5,5,0,0,1,5,5v12a5,5,0,0,1,-5,5h-93a5,5,0,0,1,-5,-5v-12a5,5,0,0,1,5,-5z"></path><g id="node_text31" fill="black"><text id="kity_text_159" text-rendering="inherit" font-size="12" dy=".8em" y="803.5800018310547" x="991.5">u{ CodePoint }</text></g></g><g id="minder_node35"><g id="node_expander34" style="cursor: pointer;"><path id="kity_path_305" fill="white" stroke="gray" d="M540.5,863.5A6,6,0,1,1,528.5,863.5A6,6,0,1,1,540.5,863.5"></path><path id="kity_path_306" fill="none" stroke="gray" d="M530,863.5L539,863.5"></path></g><path id="node_outline35" fill="none" stroke="none" d="M545.5,852.5h112a5,5,0,0,1,5,5v12a5,5,0,0,1,-5,5h-112a5,5,0,0,1,-5,-5v-12a5,5,0,0,1,5,-5z"></path><g id="node_text35" fill="black"><text id="kity_text_167" text-rendering="inherit" font-size="12" dy=".8em" y="855.5800018310547" x="550.5">Line Continuation</text></g></g><g id="minder_node36"><g id="node_expander33" style="cursor: pointer;" display="none"><path id="kity_path_302" fill="white" stroke="gray" d="M702.5,863.5A6,6,0,1,1,690.5,863.5A6,6,0,1,1,702.5,863.5"></path><path id="kity_path_303" fill="none" stroke="gray"></path></g><path id="node_outline34" fill="none" stroke="none" d="M707.5,852.5h165a5,5,0,0,1,5,5v12a5,5,0,0,1,-5,5h-165a5,5,0,0,1,-5,-5v-12a5,5,0,0,1,5,-5z"></path><g id="node_text34" fill="black"><text id="kity_text_165" text-rendering="inherit" font-size="12" dy=".8em" y="855.5800018310547" x="712.5">\Line Terminator Sequance</text></g></g></g></g></svg>